<svg width="30" height="42" viewBox="0 0 30 42" fill="none" xmlns="http://www.w3.org/2000/svg">
<rect width="30" height="42" transform="matrix(-1 0 0 1 30 0)" fill="#14586F"/>
<path fill-rule="evenodd" clip-rule="evenodd" d="M16.8943 12.834C17.1223 12.8165 17.3485 12.8663 17.5459 12.9745L17.5627 12.9549L17.745 13.1111C17.8617 13.2111 17.9576 13.3332 18.0271 13.4703C18.0966 13.6074 18.1385 13.7569 18.1502 13.9102C18.1619 14.0634 18.1434 14.2175 18.0955 14.3636C18.0477 14.5097 17.9715 14.645 17.8714 14.7616L12.5248 21L17.8676 27.234C17.971 27.3485 18.0508 27.4822 18.1023 27.6277C18.1547 27.7755 18.1769 27.9324 18.1674 28.0889C18.158 28.2455 18.1172 28.3986 18.0474 28.539C17.9776 28.6795 17.8803 28.8045 17.7612 28.9066C17.6422 29.0087 17.5038 29.0859 17.3543 29.1334C17.2049 29.181 17.0474 29.198 16.8912 29.1835C16.735 29.169 16.5834 29.1232 16.4452 29.0489C16.3093 28.9758 16.1893 28.8765 16.0919 28.7568L10.0958 21.7613C9.91407 21.5493 9.81421 21.2792 9.81421 21C9.81421 20.7208 9.91412 20.4507 10.0958 20.2387L16.096 13.2384C16.298 13.0031 16.5851 12.8577 16.8943 12.834Z" fill="white"/>
</svg>
