<svg width="30" height="42" viewBox="0 0 30 42" fill="none" xmlns="http://www.w3.org/2000/svg">
<rect width="30" height="42" fill="#14586F"/>
<path fill-rule="evenodd" clip-rule="evenodd" d="M13.1057 12.834C12.8777 12.8165 12.6515 12.8663 12.4541 12.9745L12.4373 12.9549L12.255 13.1111C12.1383 13.2111 12.0424 13.3332 11.9729 13.4703C11.9034 13.6074 11.8615 13.7569 11.8498 13.9102C11.8381 14.0634 11.8566 14.2175 11.9045 14.3636C11.9523 14.5097 12.0285 14.645 12.1286 14.7616L17.4752 21L12.1324 27.234C12.029 27.3485 11.9492 27.4822 11.8977 27.6277C11.8453 27.7755 11.8231 27.9324 11.8326 28.0889C11.842 28.2455 11.8828 28.3986 11.9526 28.539C12.0224 28.6795 12.1197 28.8045 12.2388 28.9066C12.3578 29.0087 12.4962 29.0859 12.6457 29.1334C12.7951 29.181 12.9526 29.198 13.1088 29.1835C13.265 29.169 13.4166 29.1232 13.5548 29.0489C13.6907 28.9758 13.8107 28.8765 13.9081 28.7568L19.9042 21.7613C20.0859 21.5493 20.1858 21.2792 20.1858 21C20.1858 20.7208 20.0859 20.4507 19.9042 20.2387L13.904 13.2384C13.702 13.0031 13.4149 12.8577 13.1057 12.834Z" fill="white"/>
</svg>
