<svg width="72" height="72" viewBox="0 0 72 72" fill="none" xmlns="http://www.w3.org/2000/svg">
<g clip-path="url(#clip0_65_1586)">
<path d="M66.6428 0.0534949H5.35704C3.96651 0.0393433 2.62715 0.577396 1.63286 1.54959C0.638574 2.52179 0.0705627 3.84871 0.0534668 5.23921V66.7724C0.0736545 68.1609 0.643024 69.4848 1.63698 70.4544C2.63093 71.4241 3.96852 71.9605 5.35704 71.9464H66.6428C68.0334 71.9574 69.3718 71.4175 70.3656 70.4447C71.3594 69.4719 71.9277 68.1453 71.9463 66.7548V5.22153C71.9215 3.83511 71.3505 2.51451 70.3574 1.54678C69.3643 0.579047 68.0294 0.0424036 66.6428 0.0534949Z" fill="#0076B2"/>
<path d="M10.696 27.0016H21.3679V61.3393H10.696V27.0016ZM16.0349 9.91235C17.2589 9.91235 18.4555 10.2754 19.4731 10.9555C20.4908 11.6357 21.2838 12.6024 21.752 13.7334C22.2201 14.8643 22.3423 16.1087 22.1031 17.3091C21.8639 18.5096 21.274 19.6121 20.408 20.4772C19.5421 21.3423 18.4391 21.9311 17.2384 22.1692C16.0378 22.4073 14.7935 22.2839 13.663 21.8147C12.5325 21.3454 11.5665 20.5515 10.8873 19.5332C10.2081 18.5149 9.84625 17.318 9.84741 16.094C9.84898 14.454 10.5016 12.8817 11.6618 11.7225C12.822 10.5634 14.3949 9.91235 16.0349 9.91235ZM28.0622 27.0016H38.2922V31.7159H38.4337C39.8597 29.017 43.3365 26.1707 48.5281 26.1707C59.3356 26.1472 61.3392 33.2598 61.3392 42.4822V61.3393H50.6672V44.6331C50.6672 40.6554 50.5965 35.5345 45.1221 35.5345C39.6476 35.5345 38.7165 39.8716 38.7165 44.3738V61.3393H28.0622V27.0016Z" fill="white"/>
</g>
<defs>
<clipPath id="clip0_65_1586">
<rect width="72" height="72" rx="16" fill="white"/>
</clipPath>
</defs>
</svg>
