<svg width="331" height="108" viewBox="0 0 331 108" fill="none" xmlns="http://www.w3.org/2000/svg">
<path fill-rule="evenodd" clip-rule="evenodd" d="M147.097 53.3331L147.083 53.3432C148.665 57.3479 149.122 61.706 148.406 65.945C148.307 66.5333 148.188 67.112 148.049 67.6812C145.492 78.1397 136.195 85.4267 125.648 85.6326C125.074 85.6448 124.495 85.6348 123.913 85.6028C122.997 85.5531 122.084 85.4507 121.18 85.2958L120.98 85.2617C118.773 85.5867 116.519 85.3831 114.403 84.6675C112.751 84.1097 111.217 83.247 109.881 82.1242C107.626 80.2309 106.018 77.6807 105.28 74.8311C105.182 74.4475 105.099 74.0589 105.032 73.6651C105.011 73.5461 104.991 73.4263 104.975 73.3058C104.821 72.2271 104.795 71.1344 104.896 70.0502C104.927 69.7034 104.972 69.3552 105.031 69.0055C105.351 67.0761 106.072 65.2367 107.148 63.6059C108.223 61.975 109.628 60.589 111.273 59.537C113.871 57.8657 116.951 57.1084 120.027 57.3788C120.218 57.3957 120.411 57.3481 120.566 57.2355C120.844 57.0344 121.115 56.8255 121.38 56.6088C121.422 56.5748 121.404 56.5079 121.351 56.4988C120.909 56.4234 120.469 56.3678 120.031 56.3322C118.66 56.2186 117.28 56.2949 115.931 56.5589C113.559 57.0243 111.335 58.0541 109.447 59.5615C108.726 59.5312 108.007 59.455 107.296 59.3333C107.241 59.324 107.185 59.3136 107.129 59.3032C107.072 59.2926 107.015 59.2819 106.957 59.272C106.147 59.116 105.349 58.901 104.569 58.6287L104.479 58.5968C104.211 58.502 103.946 58.4003 103.685 58.2917C103.221 58.0182 102.844 57.619 102.597 57.1405C102.35 56.6619 102.244 56.1236 102.29 55.5878C102.306 55.5291 102.32 55.4278 102.334 55.3253L102.334 55.325C102.348 55.2157 102.363 55.105 102.382 55.0431C102.42 54.9115 102.463 54.8296 102.506 54.7464C102.546 54.6695 102.587 54.5913 102.626 54.4716C102.958 53.8666 103.498 53.4033 104.146 53.1676C104.15 53.1682 104.154 53.1687 104.159 53.1692L104.166 53.1699L104.176 53.1707C104.188 53.1718 104.201 53.1728 104.213 53.1749C104.207 53.1669 104.202 53.1584 104.197 53.1499C104.448 53.0642 104.711 53.0144 104.976 53.0018L104.977 52.9978C105.477 52.984 105.973 52.9493 106.464 52.8936C106.73 52.8642 106.994 52.8282 107.256 52.7871C107.326 52.7761 107.395 52.7644 107.465 52.7522C107.675 52.7156 107.885 52.6759 108.093 52.633C111.886 51.8399 115.317 49.8352 117.868 46.92C118.913 45.7273 119.792 44.3988 120.483 42.9704C120.662 42.6911 120.831 42.4064 120.993 42.1162C121.643 40.9484 122.144 39.7032 122.485 38.4097C122.616 37.9213 122.723 37.423 122.808 36.9147C123.09 35.2427 123.107 33.5359 122.858 31.8569C122.793 31.4222 122.711 30.9929 122.612 30.5689C122.611 30.5626 122.61 30.5565 122.609 30.5505L122.607 30.5404L122.603 30.5247L122.603 30.524C122.602 30.5186 122.6 30.5132 122.599 30.5078L122.543 30.5395C122.347 30.6507 122.15 30.7605 121.951 30.8689L121.764 30.9705L121.648 31.0319C121.372 31.1806 121.092 31.3263 120.811 31.4672C117.979 32.8912 115.114 33.893 113.628 33.639L113.629 33.6322C113.561 33.6277 113.495 33.6164 113.427 33.6049C112.685 33.478 112.022 33.061 111.584 32.4457C111.147 31.8304 110.971 31.0671 111.096 30.3238C111.216 29.6026 111.534 28.9798 112.065 28.5592L112.065 28.5593L112.068 28.5566C112.079 28.5471 112.09 28.5372 112.101 28.5271C112.819 27.8812 113.479 27.1736 114.074 26.4123C114.305 26.1184 114.525 25.8161 114.733 25.5054C115.256 24.7341 115.712 23.9192 116.096 23.0698C116.19 22.8627 116.28 22.6529 116.366 22.4404C116.42 22.3066 116.473 22.172 116.523 22.0366C116.576 21.8951 116.627 21.7526 116.675 21.6091C116.698 21.543 116.721 21.4764 116.743 21.4089C116.755 21.3727 116.767 21.3354 116.779 21.2974C116.852 21.0695 116.921 20.8392 116.984 20.6065C117.045 20.3851 117.101 20.1594 117.153 19.9329C117.774 18.3761 118.983 17.1288 120.519 16.4612C121.105 16.2058 121.725 16.0405 122.361 15.971C122.253 15.4337 122.161 14.8926 122.084 14.3476C121.759 12.0541 121.708 9.73091 121.933 7.42721C121.999 6.75398 122.088 6.07877 122.201 5.4016C122.255 5.08187 122.301 4.76477 122.348 4.44958L122.348 4.44914L122.348 4.44866C122.564 2.98317 122.775 1.55881 123.604 0.103088C123.596 4.31087 124.5 8.4732 126.255 12.3024C126.664 13.1966 127.118 14.0697 127.614 14.9184L127.617 14.9236C127.798 15.2333 127.985 15.5398 128.177 15.8429C128.307 16.0468 128.438 16.2498 128.573 16.4494L128.576 16.4533C132.149 22.34 134.727 28.775 136.204 35.4977C136.653 37.5429 136.997 39.6094 137.237 41.6889C137.343 42.6008 137.428 43.5174 137.493 44.4387C137.837 49.3609 137.599 54.3046 136.782 59.1669C136.364 61.6643 135.797 64.1339 135.082 66.5619C135.065 66.6143 135.056 66.667 135.047 66.7242C134.983 67.1027 135.056 67.4919 135.252 67.8227C135.448 68.1536 135.754 68.4046 136.117 68.5314C136.479 68.6581 136.874 68.6523 137.232 68.515C137.59 68.3778 137.887 68.1179 138.071 67.7815C138.124 67.685 138.167 67.5831 138.199 67.4774C140.26 62.4733 140.838 56.9766 139.865 51.6428L139.877 51.6331C139.484 48.9466 139.484 46.2186 139.875 43.5345C139.902 43.3274 139.937 43.1216 139.971 42.9147L139.972 42.9144C140.845 37.6574 143.201 32.7643 146.762 28.8106C148.27 27.137 149.974 25.6515 151.838 24.3861C148.585 28.3273 146.432 33.0614 145.597 38.1101C145.545 38.4136 145.5 38.7166 145.459 39.0191C144.798 43.8486 145.361 48.7709 147.097 53.3331ZM112.119 28.5651L112.126 28.5773C112.128 28.5752 112.13 28.5732 112.133 28.5713C112.136 28.5692 112.138 28.5672 112.141 28.5652C112.134 28.5646 112.127 28.5645 112.119 28.5651ZM118.946 23.4478C119.134 23.6253 119.37 23.7432 119.625 23.7867C119.966 23.845 120.316 23.7653 120.597 23.5652C120.879 23.365 121.069 23.0609 121.126 22.7196C121.169 22.465 121.135 22.2034 121.029 21.9676C120.923 21.7318 120.75 21.5326 120.531 21.395C120.312 21.2575 120.058 21.1878 119.8 21.1948C119.542 21.2019 119.293 21.2853 119.083 21.4345C118.873 21.5838 118.712 21.7921 118.621 22.0333C118.529 22.2744 118.511 22.5375 118.569 22.7893C118.627 23.0411 118.759 23.2702 118.946 23.4478ZM120.69 14.4391C118.763 14.3717 116.928 13.5834 115.548 12.2299C114.169 10.8763 113.344 9.05578 113.238 7.12763C115.165 7.19579 117 7.9843 118.379 9.3377C119.759 10.6911 120.583 12.5112 120.69 14.4391ZM114.416 48.5511C114.257 48.7199 114.091 48.8878 113.92 49.0546C112.322 50.1469 110.547 50.9537 108.672 51.4395C108.18 51.5665 107.683 51.6712 107.178 51.7537C106.485 51.8676 105.784 51.9367 105.081 51.9608L105.08 51.9659C104.519 51.9706 103.966 52.0969 103.46 52.3362C103.189 52.4649 102.934 52.6245 102.7 52.8118C102.685 52.8237 102.671 52.8357 102.656 52.8476C102.642 52.859 102.628 52.8704 102.614 52.8819L102.597 52.8965L102.582 52.9092C101.901 53.4982 101.448 54.3071 101.301 55.1965L101.288 55.272C101.156 56.1599 101.337 57.0672 101.799 57.8384L101.893 57.9832C102.236 58.5047 102.699 58.9365 103.243 59.2422C103.576 59.4287 103.934 59.5649 104.306 59.6462L104.396 59.6768C104.577 59.7383 104.759 59.7977 104.944 59.8528C105.664 60.0709 106.396 60.2435 107.137 60.3699C107.546 60.4398 107.954 60.4952 108.361 60.536C106.063 62.7647 104.54 65.6738 104.015 68.8373C103.976 69.0703 103.943 69.3029 103.915 69.535C103.392 69.236 102.886 68.9082 102.399 68.5531C100.063 66.8523 98.2231 64.5575 97.0701 61.9073C95.917 59.257 95.4933 56.3482 95.8431 53.4834C95.8724 53.2405 95.9073 52.9976 95.948 52.7548C95.989 52.5094 96.0357 52.2656 96.0871 52.0249C96.0932 51.9884 96.1017 51.9524 96.1103 51.9163L96.1103 51.916L96.1142 51.8994L96.1174 51.8856L96.1198 51.8752C96.1823 51.5965 96.2512 51.3217 96.328 51.0495C96.4243 50.7079 96.5304 50.3713 96.6463 50.0397C96.9487 49.1824 97.3235 48.3528 97.7668 47.5597C99.6286 48.8377 101.737 49.7106 103.954 50.1216L104.201 50.1638L104.202 50.1639C104.31 50.1824 104.418 50.2009 104.526 50.2159C105.553 50.3716 106.592 50.428 107.629 50.3841C108.325 50.3549 109.019 50.2797 109.705 50.1593C111.35 49.871 112.939 49.3284 114.416 48.5511ZM113.839 41.4058C113.853 41.3067 113.86 41.2066 113.859 41.1064C113.858 40.7486 113.766 40.3967 113.59 40.0845C113.414 39.7724 113.161 39.5104 112.856 39.3236C112.791 39.2838 112.724 39.2478 112.655 39.2158C112.494 39.2219 112.33 39.2327 112.164 39.2495C112.095 39.2561 112.025 39.2639 111.955 39.2728C111.956 39.2764 111.956 39.28 111.956 39.2836C111.956 39.2866 111.955 39.2897 111.955 39.2927C111.904 39.2915 111.853 39.2917 111.802 39.2924C111.299 39.3621 110.802 39.4667 110.315 39.6054C110.011 39.6912 109.704 39.7913 109.394 39.9058C109.015 40.0447 108.634 40.2043 108.251 40.3847C107.715 40.6367 107.194 40.9192 106.691 41.2307C106.618 41.2758 106.545 41.3222 106.472 41.3697C106.372 41.4335 106.273 41.4985 106.175 41.5648C105.977 40.6447 105.519 39.8004 104.854 39.1337C104.189 38.467 103.347 38.0062 102.428 37.8069C102.367 38.0092 102.319 38.2154 102.284 38.424C102.136 39.3069 102.235 40.2142 102.568 41.0463C102.902 41.8784 103.458 42.6031 104.175 43.141C104.074 43.2343 103.975 43.3281 103.879 43.4234C102.735 42.9648 101.482 42.86 100.28 43.1227C99.0791 43.3854 97.9854 44.0034 97.1411 44.8967C97.0398 45.0033 96.9428 45.1142 96.8503 45.2294C97.3834 45.645 97.9818 45.9689 98.6207 46.1878C99.5604 46.5113 100.563 46.6036 101.545 46.4568C101.45 46.6324 101.362 46.8074 101.281 46.9817C101.211 47.1326 101.147 47.283 101.088 47.4328C101.001 47.6534 100.927 47.8729 100.864 48.0912C101.918 48.5494 103.02 48.8863 104.149 49.0954L104.371 49.1334C104.618 49.1755 104.864 49.2114 105.109 49.2411C106.933 49.4638 108.781 49.3506 110.561 48.9073C110.999 48.2243 111.425 47.4865 111.828 46.7053C112.733 44.9485 113.389 43.2233 113.768 41.7133C113.769 41.7114 113.769 41.7095 113.769 41.7076L113.771 41.7017C113.779 41.6697 113.787 41.6378 113.795 41.6059C113.804 41.5691 113.812 41.5323 113.821 41.4957L113.823 41.482C113.823 41.4808 113.823 41.4796 113.824 41.4785L113.828 41.454C113.834 41.438 113.836 41.4231 113.839 41.4058ZM108.169 43.6663C107.977 43.6335 107.798 43.5443 107.656 43.4102C107.514 43.2761 107.415 43.1029 107.371 42.9127C107.328 42.7225 107.341 42.5237 107.41 42.3415C107.479 42.1593 107.601 42.0018 107.759 41.8891C107.918 41.7763 108.107 41.7133 108.302 41.708C108.496 41.7027 108.688 41.7553 108.854 41.8592C109.019 41.9632 109.15 42.1137 109.23 42.2919C109.31 42.47 109.335 42.6677 109.303 42.86C109.26 43.1178 109.116 43.3475 108.904 43.4987C108.691 43.65 108.427 43.7103 108.169 43.6664L108.169 43.6663ZM249.983 83.4906H249.32C249.194 82.9798 249.13 81.8303 249.13 80.0422C249.13 78.1903 249.983 73.2731 251.69 65.2907C253.396 57.3083 254.249 52.7424 254.249 51.5929C254.249 49.6133 253.365 47.4421 251.595 45.0793L250.742 43.9298L250.837 42.6845C254.249 41.7267 259.716 41.2477 267.237 41.2477C267.995 42.908 268.374 45.2389 268.374 48.2403C269.069 47.0908 270.523 45.5582 272.735 43.6424C274.947 41.7267 277.222 40.7688 279.56 40.7688C282.973 40.7688 284.679 43.7702 284.679 49.7729C284.363 50.1561 283.921 50.667 283.352 51.3055C282.847 51.8803 281.772 52.7104 280.129 53.7961C278.549 54.8817 277.001 55.5522 275.484 55.8076C275.421 55.8076 274.884 54.9455 273.872 53.2213C272.861 51.4971 272.103 50.635 271.597 50.635C270.017 51.2098 268.627 52.1676 267.426 53.5087C264.519 66.7276 263.066 75.2847 263.066 79.1801C263.066 80.585 263.097 81.5749 263.16 82.1496C260.948 83.0436 256.556 83.4906 249.983 83.4906ZM202.938 62.132C201.294 68.7095 200.473 73.3712 200.473 76.1172C200.473 78.7993 201.168 80.8747 202.558 82.3435C204.012 83.8122 205.845 84.5466 208.057 84.5466C212.228 84.5466 216.873 82.4393 221.992 78.2245C222.182 80.0765 222.971 81.5772 224.362 82.7266C225.815 83.8761 227.553 84.4508 229.576 84.4508C233.81 84.4508 242.563 81.2817 242.563 74.2972C239.34 75.8298 237.539 76.5961 237.16 76.5961C236.528 76.5961 236.212 75.8618 236.212 74.393C236.212 72.8604 237.096 67.7516 238.866 59.0668C240.635 50.318 241.52 44.443 241.52 41.4416H239.719C233.968 41.4416 229.986 41.8886 227.775 42.7826C227.775 47.1889 226.637 54.5008 224.362 64.7183C223.351 69.0607 222.719 71.9983 222.466 73.5309C220.064 74.8719 217.947 75.5425 216.114 75.5425C214.851 75.5425 214.219 74.6804 214.219 72.9562C214.219 71.232 215.103 66.8257 216.873 59.7373C218.642 52.6489 219.527 48.0191 219.527 45.8479C219.527 43.6767 219.369 42.176 219.053 41.3458C212.038 41.3458 206.382 41.7928 202.084 42.6869C204.36 45.1774 205.402 48.4342 205.402 49.9668C205.402 51.4356 204.581 55.4906 202.938 62.132ZM288.677 76.1172C288.677 73.3712 289.498 68.7095 291.142 62.132C292.785 55.4906 293.606 51.4356 293.606 49.9668C293.606 48.4342 292.564 45.1774 290.288 42.6869C294.586 41.7928 300.242 41.3458 307.257 41.3458C307.573 42.176 307.731 43.6767 307.731 45.8479C307.731 48.0191 306.846 52.6489 305.077 59.7373C303.307 66.8257 302.422 71.232 302.422 72.9562C302.422 74.6804 303.054 75.5425 304.318 75.5425C306.151 75.5425 308.268 74.8719 310.67 73.5309C310.923 71.9983 311.555 69.0607 312.566 64.7183C314.841 54.5008 315.979 47.1889 315.979 42.7826C318.19 41.8886 322.172 41.4416 327.923 41.4416H329.724C329.724 44.443 328.839 50.318 327.07 59.0668C325.3 67.7516 324.416 72.8604 324.416 74.393C324.416 75.8618 324.731 76.5961 325.363 76.5961C325.743 76.5961 327.544 75.8298 330.767 74.2972C330.767 81.2817 322.014 84.4508 317.78 84.4508C315.757 84.4508 314.019 83.8761 312.566 82.7266C311.175 81.5772 310.385 80.0765 310.196 78.2245C305.077 82.4393 300.432 84.5466 296.261 84.5466C294.049 84.5466 292.216 83.8122 290.762 82.3435C289.372 80.8747 288.677 78.7993 288.677 76.1172ZM152.569 95.8763C151.248 101.831 156.139 106.984 162.996 107.417C177.12 107.417 181.743 99.7943 183.822 96.3661C183.928 96.1914 184.028 96.0276 184.121 95.8763C185.064 94.3533 185.758 92.5113 186.296 90.5907C187.397 90.3057 188.445 89.8756 189.403 89.2402C191.576 87.7993 193.972 85.4895 196.542 81.0174C193.526 84.2185 190.231 86.0875 187.114 87.1209C187.369 85.8491 187.58 84.6054 187.775 83.4586L187.775 83.4582L187.81 83.2517C187.852 83.0071 187.893 82.7673 187.934 82.5327C191.915 62.9279 193.906 50.3157 193.906 44.6961C193.906 43.2912 193.811 42.2056 193.621 41.4393L191.631 41.3435C187.902 41.3435 184.426 41.9182 181.203 43.0677C178.169 41.5351 175.104 40.7688 172.008 40.7688C166.509 40.7688 162.085 43.2912 158.736 48.3361C155.386 53.3171 153.712 59.5753 153.712 67.1107C153.712 72.8581 154.754 77.0408 156.84 79.6591C158.989 82.2773 161.738 83.5864 165.087 83.5864C168.5 83.5864 172.039 82.1815 175.705 79.3717L174.556 87.2206C164.848 86.0666 154.426 87.5092 152.569 95.8763ZM169.827 53.1255C171.407 48.6554 173.556 46.4203 176.274 46.4203C177.285 46.4203 178.675 46.8035 180.445 47.5698C179.686 54.5304 178.422 63.375 176.653 74.1033C174.504 75.3166 172.64 75.9233 171.06 75.9233C168.658 75.9233 167.457 73.2412 167.457 67.877C167.457 62.449 168.247 57.5318 169.827 53.1255ZM158.566 97.0303C158.138 102.801 171.06 102.224 173.557 90.8271C168.703 90.5386 159.423 91.837 158.566 97.0303ZM84.8212 46.6856C84.8212 49.3677 83.968 53.9975 82.2617 60.575C80.5553 67.0886 79.7022 71.3672 79.7022 73.4107C79.7022 75.3903 79.9865 76.3802 80.5553 76.3802C80.9345 76.3802 82.3881 75.7735 84.916 74.5602L86.0536 73.9854C86.3912 75.9682 85.3674 78.1597 83.7556 80.1518C82.6754 81.4869 81.831 82.0735 80.3292 82.8927C77.7219 84.3151 75.0887 84.3306 72.8767 84.3306C70.6648 84.3306 68.9268 83.6601 67.6629 82.3191C66.3989 80.9142 65.7669 79.0622 65.7669 76.7633C65.7669 74.4005 66.5569 70.2497 68.1369 64.3108C69.7168 58.308 70.5068 54.4126 70.5068 52.6245C70.5068 49.9424 69.6852 47.42 68.0421 45.0572L66.261 42.9326C69.6105 41.9747 76.0683 41.2256 83.5889 41.2256C84.4104 42.1835 84.8212 44.0035 84.8212 46.6856ZM74.0143 30.7846C72.7503 29.5074 72.1184 27.8152 72.1184 25.7078C72.1184 23.6004 72.9715 21.7485 74.6779 20.152C76.4474 18.5556 78.4698 17.7573 80.7449 17.7573C83.0201 17.7573 84.7896 18.3959 86.0536 19.6731C87.3176 20.9503 87.9495 22.6426 87.9495 24.7499C87.9495 26.7934 87.0332 28.6134 85.2004 30.2099C83.4309 31.8064 81.4401 32.6046 79.2282 32.6046C77.0162 32.6046 75.2783 31.9979 74.0143 30.7846ZM51.3633 37.2983C55.724 32.1896 57.9043 27.1127 57.9043 22.0679C57.9043 18.7472 57.0511 16.576 55.3448 15.5542L53.6384 15.7458C52.5009 15.8735 50.8261 16.3525 48.6142 17.1826C46.4654 17.9489 44.3483 19.0026 42.2627 20.3437C42.5787 22.3872 42.7367 24.3349 42.7367 26.1868C42.7367 30.3376 41.8519 34.0415 40.0824 37.2983C36.7329 41.6407 33.9206 44.5783 31.6454 46.1109C30.0023 45.0253 28.2643 44.4825 26.4316 44.4825C24.662 44.4825 23.6192 44.9614 23.3032 45.9193C22.9872 46.8133 22.8293 48.1225 22.8293 49.8467C22.8293 51.5709 23.0504 52.6565 23.4928 53.1035C24.0616 53.5505 24.9148 53.774 26.0524 53.774C27.1899 53.774 27.9483 53.7421 28.3275 53.6782C29.5283 55.9133 31.1082 61.9161 33.0674 71.6865C33.9522 76.1567 34.4893 78.8068 34.6789 79.637C36.0693 86.0868 37.5861 90.3335 39.2292 92.3769C40.8724 94.4843 43.6847 95.538 47.6662 95.538C51.6477 95.538 56.4824 92.3769 57.3355 88.3538C57.1459 88.4177 56.8615 88.4496 56.4824 88.4496C54.6496 88.4496 52.8168 86.9808 50.9841 84.0433C49.2145 81.1058 47.6978 78.0405 46.4338 74.8476C45.1699 71.5908 43.4635 66.9929 41.3148 61.054C39.166 55.1151 37.4281 51.4751 36.1009 50.134C41.9783 46.6218 47.0658 42.3432 51.3633 37.2983ZM9.08362 18.9068C10.6004 20.631 11.3588 22.2275 11.3588 23.6963C11.3588 27.911 9.58921 37.9369 6.0501 53.774C2.511 69.6111 0.583448 79.5093 0.267456 83.4686C0.773042 83.6602 1.56302 83.756 2.63739 83.756C7.18767 83.756 11.3272 83.2131 15.0559 82.1275C15.751 72.1655 18.6898 57.0628 23.872 36.8194C24.1248 35.8615 24.504 34.265 25.0096 32.0299C25.5152 29.7948 25.8312 28.1026 25.9576 26.9531C26.1472 25.7398 26.3368 24.3668 26.5264 22.8342C26.716 21.2377 26.8107 19.8328 26.8107 18.6195C26.8107 17.3423 26.6528 16.3525 26.3368 15.65C25.3888 15.3307 23.9352 15.1711 21.9761 15.1711C16.9202 15.1711 12.6543 16.1928 9.17842 18.2363L9.08362 18.9068ZM111.285 84.6164C110.453 85.3101 109.416 85.7119 108.334 85.7603C108.257 85.7637 108.18 85.7655 108.102 85.7655H98.5641H98.4771C97.6699 85.7428 96.9034 85.4061 96.3404 84.8268C95.7775 84.2475 95.4625 83.4713 95.4625 82.6633C95.4624 82.5248 95.4717 82.3864 95.4904 82.2492C95.5904 81.5048 95.957 80.8219 96.522 80.3274C97.0871 79.8329 97.8122 79.5602 98.5629 79.56H98.5768C100.769 79.5389 102.88 78.7286 104.523 77.2775C104.675 77.1524 104.819 77.0309 104.955 76.9057C105.066 77.2116 105.187 77.5122 105.318 77.8077C106.566 80.633 108.648 83.0089 111.285 84.6164Z" fill="white"/>
<path fill-rule="evenodd" clip-rule="evenodd" d="M109.067 81.3846C107.387 79.6377 106.177 77.4815 105.566 75.1196C105.467 74.736 105.384 74.3474 105.318 73.9536C105.296 73.8346 105.277 73.7148 105.26 73.5943C105.107 72.5156 105.08 71.4229 105.181 70.3387C105.213 69.9919 105.258 69.6437 105.316 69.294C105.637 67.3646 106.358 65.5252 107.433 63.8944C108.508 62.2635 109.914 60.8775 111.559 59.8255C114.157 58.1542 117.236 57.3969 120.312 57.6673C120.466 57.6808 120.634 57.5471 120.775 57.4355C120.811 57.4076 120.844 57.3812 120.875 57.3587C121.018 57.2144 121.446 56.7817 121.446 56.6207C121.446 56.5333 121.404 56.51 121.36 56.5011C121.406 56.5159 121.419 56.5769 121.38 56.6087C121.115 56.8255 120.844 57.0344 120.566 57.2355C120.411 57.3481 120.218 57.3956 120.027 57.3788C116.951 57.1084 113.871 57.8657 111.273 59.5369C109.628 60.5889 108.223 61.975 107.148 63.6059C106.072 65.2367 105.351 67.0761 105.031 69.0055C104.972 69.3552 104.927 69.7034 104.896 70.0502C104.795 71.1344 104.821 72.227 104.975 73.3058C104.991 73.4263 105.011 73.5461 105.032 73.6651C105.099 74.0588 105.182 74.4475 105.28 74.8311C105.926 77.3248 107.238 79.5891 109.067 81.3846ZM103.254 57.98C103.11 57.8122 102.985 57.6274 102.883 57.429C102.636 56.9504 102.529 56.4121 102.575 55.8763C102.591 55.8176 102.605 55.7163 102.619 55.6138L102.619 55.6135C102.634 55.5042 102.649 55.3936 102.667 55.3316C102.706 55.2 102.748 55.1181 102.792 55.0349C102.832 54.958 102.873 54.8798 102.911 54.7601C103.243 54.1551 103.783 53.6918 104.431 53.4561C104.436 53.4567 104.44 53.4572 104.444 53.4577L104.452 53.4584L104.461 53.4592C104.466 53.4597 104.471 53.4601 104.476 53.4606C104.484 53.4613 104.491 53.4622 104.498 53.4634C104.495 53.4582 104.491 53.4528 104.488 53.4473C104.486 53.4443 104.484 53.4414 104.483 53.4384C104.734 53.3527 104.996 53.3029 105.262 53.2903L105.262 53.2863C105.762 53.2725 106.258 53.2378 106.75 53.1821C107.015 53.1528 107.279 53.1167 107.541 53.0756C107.611 53.0646 107.681 53.0529 107.75 53.0407C107.961 53.0041 108.17 52.9644 108.378 52.9215C112.172 52.1284 115.602 50.1237 118.154 47.2085C119.198 46.0158 120.078 44.6874 120.768 43.2589C120.947 42.9796 121.117 42.6949 121.278 42.4047C121.928 41.2369 122.43 39.9917 122.771 38.6982C122.901 38.2098 123.009 37.7115 123.094 37.2033C123.375 35.5312 123.392 33.8244 123.143 32.1454C123.079 31.7107 122.997 31.2814 122.898 30.8575C122.897 30.8511 122.896 30.845 122.894 30.839L122.892 30.8289L122.889 30.8133L122.888 30.8125L122.887 30.8058C122.886 30.8027 122.885 30.7995 122.885 30.7964L122.829 30.828C122.782 30.8546 122.735 30.8812 122.688 30.9077C122.754 31.2212 122.81 31.5376 122.858 31.8569C123.107 33.5358 123.09 35.2427 122.808 36.9147C122.723 37.423 122.616 37.9213 122.485 38.4097C122.144 39.7032 121.643 40.9484 120.993 42.1162C120.831 42.4064 120.662 42.6911 120.483 42.9704C119.792 44.3988 118.913 45.7273 117.868 46.92C115.317 49.8352 111.886 51.8399 108.093 52.633C107.885 52.6758 107.675 52.7156 107.465 52.7522C107.395 52.7644 107.326 52.7761 107.256 52.7871C106.994 52.8282 106.73 52.8642 106.464 52.8936C105.973 52.9493 105.477 52.984 104.977 52.9978L104.976 53.0018C104.711 53.0144 104.448 53.0642 104.197 53.1499C104.202 53.1584 104.207 53.1669 104.213 53.1749C104.201 53.1728 104.188 53.1718 104.176 53.1707L104.166 53.1699L104.159 53.1692C104.154 53.1687 104.15 53.1682 104.146 53.1676C103.498 53.4033 102.958 53.8666 102.626 54.4716C102.587 54.5913 102.546 54.6695 102.506 54.7464C102.463 54.8296 102.42 54.9114 102.382 55.0431C102.363 55.105 102.348 55.2157 102.334 55.325L102.334 55.3253C102.32 55.4278 102.306 55.5291 102.29 55.5878C102.244 56.1236 102.35 56.6619 102.597 57.1405C102.762 57.4604 102.986 57.7448 103.254 57.98ZM112.03 32.9392C111.974 32.8736 111.92 32.8052 111.87 32.7342C111.433 32.1189 111.257 31.3556 111.381 30.6124C111.502 29.8911 111.819 29.2683 112.35 28.8477L112.351 28.8478L112.354 28.8451C112.365 28.8356 112.376 28.8257 112.386 28.8156C113.104 28.1697 113.765 27.4621 114.36 26.7008C114.59 26.4069 114.81 26.1046 115.019 25.7939C115.542 25.0226 115.998 24.2078 116.382 23.3583C116.476 23.1512 116.565 22.9414 116.651 22.729C116.706 22.5951 116.758 22.4605 116.808 22.3251C116.861 22.1836 116.912 22.0411 116.961 21.8977C116.984 21.8316 117.007 21.7649 117.028 21.6974C117.04 21.6612 117.052 21.6239 117.064 21.5859C117.138 21.358 117.206 21.1277 117.27 20.895C117.33 20.6736 117.387 20.4479 117.438 20.2214C118.059 18.6646 119.269 17.4173 120.805 16.7497C121.39 16.4943 122.011 16.329 122.646 16.2595C122.538 15.7222 122.446 15.1811 122.369 14.6362C122.044 12.3427 121.994 10.0194 122.219 7.71573C122.284 7.0425 122.373 6.36729 122.487 5.69012C122.54 5.37039 122.587 5.05329 122.633 4.7381L122.633 4.73766L122.633 4.73718V4.7371C122.824 3.44942 123.009 2.1935 123.614 0.920153C123.607 0.648041 123.603 0.37566 123.604 0.103088C122.775 1.55879 122.564 2.98312 122.348 4.44858V4.44866L122.348 4.44914L122.348 4.44958C122.301 4.76477 122.255 5.08187 122.201 5.4016C122.088 6.07877 121.999 6.75398 121.933 7.42721C121.708 9.7309 121.759 12.0541 122.084 14.3476C122.161 14.8926 122.253 15.4337 122.361 15.971C121.725 16.0405 121.105 16.2058 120.519 16.4612C118.983 17.1288 117.774 18.3761 117.153 19.9329C117.101 20.1594 117.045 20.3851 116.984 20.6065C116.921 20.8392 116.852 21.0695 116.779 21.2973C116.767 21.3354 116.755 21.3727 116.743 21.4089C116.721 21.4763 116.698 21.543 116.675 21.6091C116.627 21.7526 116.576 21.8951 116.523 22.0366C116.473 22.172 116.42 22.3066 116.366 22.4404C116.28 22.6529 116.19 22.8627 116.096 23.0698C115.712 23.9192 115.256 24.7341 114.733 25.5054C114.525 25.8161 114.305 26.1184 114.074 26.4123C113.479 27.1736 112.819 27.8812 112.101 28.5271C112.09 28.5372 112.079 28.5471 112.068 28.5566L112.065 28.5593L112.065 28.5592C111.534 28.9798 111.216 29.6026 111.096 30.3238C110.971 31.0671 111.147 31.8303 111.584 32.4457C111.714 32.6285 111.864 32.7938 112.03 32.9392ZM135.648 68.2746C135.788 68.3846 135.946 68.4717 136.117 68.5313C136.479 68.6581 136.874 68.6523 137.232 68.515C137.59 68.3778 137.887 68.1179 138.071 67.7815C138.124 67.685 138.167 67.5831 138.199 67.4774C140.26 62.4733 140.838 56.9766 139.865 51.6428L139.877 51.6331C139.484 48.9466 139.484 46.2185 139.875 43.5345C139.902 43.3274 139.937 43.1216 139.971 42.9147L139.972 42.9143C140.845 37.6574 143.201 32.7643 146.762 28.8106C148.27 27.137 149.974 25.6515 151.838 24.3861C151.533 24.7553 151.238 25.1314 150.953 25.5141C149.542 26.5823 148.234 27.7825 147.047 29.0991C143.486 33.0528 141.131 37.9459 140.257 43.2029L140.257 43.2032C140.222 43.4101 140.188 43.6159 140.161 43.823C139.77 46.5071 139.77 49.2351 140.162 51.9216L140.15 51.9313C141.124 57.2651 140.546 62.7618 138.485 67.766C138.453 67.8716 138.41 67.9735 138.357 68.07C138.173 68.4064 137.876 68.6663 137.518 68.8036C137.16 68.9408 136.765 68.9466 136.402 68.8199C136.102 68.7149 135.84 68.5248 135.648 68.2746ZM112.126 28.5773L112.119 28.5651C112.127 28.5645 112.134 28.5646 112.141 28.5652C112.138 28.5672 112.136 28.5692 112.133 28.5713C112.13 28.5732 112.128 28.5752 112.126 28.5773ZM115.612 12.2915C114.366 10.9648 113.624 9.23855 113.523 7.41614C115.421 7.48327 117.229 8.24891 118.601 9.5646C118.529 9.4876 118.455 9.41195 118.379 9.3377C117 7.9843 115.165 7.19579 113.238 7.12762C113.344 9.05578 114.169 10.8763 115.548 12.2299C115.569 12.2505 115.591 12.2711 115.612 12.2915ZM113.92 49.0546C114.091 48.8877 114.257 48.7199 114.416 48.5511C112.939 49.3284 111.35 49.871 109.705 50.1593C109.019 50.2797 108.325 50.3549 107.629 50.3841C106.592 50.4279 105.553 50.3716 104.526 50.2159C104.418 50.2009 104.31 50.1824 104.202 50.1639L104.201 50.1638L103.954 50.1216C101.737 49.7106 99.6286 48.8377 97.7668 47.5597C97.3235 48.3528 96.9487 49.1824 96.6463 50.0397C96.5304 50.3713 96.4243 50.7079 96.328 51.0495C96.2512 51.3217 96.1823 51.5964 96.1198 51.8752L96.1174 51.8856L96.1142 51.8994L96.1103 51.9159L96.1103 51.9163C96.1017 51.9523 96.0932 51.9884 96.0871 52.0249C96.0357 52.2656 95.989 52.5094 95.948 52.7547C95.9073 52.9976 95.8724 53.2405 95.8431 53.4834C95.4933 56.3482 95.917 59.257 97.0701 61.9073C97.9007 63.8166 99.0881 65.5414 100.561 66.9925C99.2197 65.6033 98.1319 63.9801 97.3556 62.1958C96.2026 59.5456 95.7789 56.6367 96.1286 53.7719C96.1579 53.529 96.1928 53.2862 96.2335 53.0433C96.2745 52.7979 96.3212 52.5541 96.3727 52.3134C96.3788 52.277 96.3873 52.2409 96.3958 52.2048L96.3959 52.2045L96.3998 52.1879L96.403 52.1741L96.4054 52.1637C96.4679 51.885 96.5368 51.6102 96.6135 51.338C96.7098 50.9964 96.8159 50.6598 96.9318 50.3282C97.2342 49.4709 97.6091 48.6413 98.0523 47.8482C99.9141 49.1262 102.022 49.9991 104.24 50.4102L104.487 50.4523L104.487 50.4524C104.596 50.471 104.704 50.4894 104.812 50.5044C105.839 50.6601 106.878 50.7165 107.915 50.6727C108.611 50.6434 109.304 50.5682 109.99 50.4478C111.068 50.2589 112.122 49.9608 113.136 49.559C113.402 49.3984 113.664 49.2302 113.92 49.0546ZM102.526 58.7247C102.813 59.046 103.151 59.3187 103.529 59.5307C103.861 59.7172 104.219 59.8534 104.592 59.9347L104.681 59.9653C104.863 60.0268 105.045 60.0862 105.23 60.1413C105.949 60.3594 106.682 60.532 107.423 60.6584C107.659 60.6987 107.895 60.7342 108.13 60.7649C108.206 60.6878 108.283 60.6115 108.361 60.536C107.954 60.4952 107.546 60.4398 107.137 60.3698C106.396 60.2435 105.664 60.0708 104.944 59.8528C104.759 59.7977 104.577 59.7383 104.396 59.6767L104.306 59.6462C103.934 59.5649 103.576 59.4287 103.243 59.2422C102.985 59.0969 102.744 58.9231 102.526 58.7247ZM113.389 39.789C113.239 39.6054 113.059 39.4479 112.856 39.3236C112.791 39.2838 112.724 39.2478 112.655 39.2158C112.494 39.2218 112.33 39.2326 112.164 39.2495C112.095 39.2561 112.025 39.2639 111.955 39.2727C111.956 39.2764 111.956 39.28 111.956 39.2836C111.956 39.2866 111.955 39.2897 111.955 39.2927C111.904 39.2915 111.853 39.2917 111.802 39.2924C111.299 39.362 110.802 39.4667 110.315 39.6054C110.011 39.6912 109.704 39.7913 109.394 39.9058C109.015 40.0447 108.634 40.2043 108.251 40.3846C107.715 40.6367 107.194 40.9192 106.691 41.2307C106.618 41.2758 106.545 41.3222 106.472 41.3697C106.374 41.4323 106.277 41.4961 106.18 41.5611C106.216 41.6881 106.256 41.8074 106.313 41.9228C106.367 41.8862 106.467 41.8289 106.561 41.7741C106.639 41.7296 106.713 41.6868 106.757 41.6582C106.83 41.6107 106.904 41.5644 106.977 41.5192C107.48 41.2077 108.001 40.9252 108.536 40.6732C108.92 40.4928 109.301 40.3332 109.679 40.1943C109.99 40.0798 110.297 39.9797 110.6 39.8939C111.088 39.7552 111.585 39.6506 112.087 39.5809C112.138 39.5802 112.189 39.58 112.241 39.5812C112.241 39.5782 112.241 39.5752 112.241 39.5721C112.241 39.5685 112.241 39.5649 112.241 39.5613C112.311 39.5524 112.38 39.5446 112.449 39.5381C112.616 39.5212 112.78 39.5104 112.941 39.5043C113.01 39.5364 113.077 39.5724 113.141 39.6122C113.228 39.6652 113.311 39.7243 113.389 39.789ZM105.006 39.2935C104.957 39.2392 104.906 39.1859 104.854 39.1337C104.189 38.467 103.347 38.0062 102.428 37.8069C102.367 38.0092 102.319 38.2154 102.284 38.424C102.136 39.3069 102.235 40.2141 102.568 41.0463C102.902 41.8784 103.458 42.6031 104.175 43.141C104.074 43.2343 103.975 43.3281 103.879 43.4234C102.735 42.9648 101.482 42.86 100.28 43.1227C99.0791 43.3854 97.9854 44.0034 97.1411 44.8967C97.0398 45.0033 96.9428 45.1142 96.8503 45.2294C96.9567 45.3123 97.0657 45.3916 97.1771 45.4672C97.2571 45.3701 97.3403 45.2761 97.4266 45.1852C98.271 44.2919 99.3646 43.6739 100.566 43.4112C101.767 43.1485 103.021 43.2533 104.164 43.7119C104.21 43.6669 104.255 43.6081 104.301 43.5486C104.352 43.482 104.404 43.4148 104.457 43.3654C103.74 42.8276 103.187 42.1669 102.854 41.3348C102.52 40.5027 102.422 39.5954 102.569 38.7125C102.604 38.5039 102.653 38.2978 102.714 38.0954C103.572 38.2816 104.364 38.6961 105.006 39.2935ZM101.537 46.4722C101.445 46.6427 101.36 46.8125 101.281 46.9817C101.211 47.1326 101.147 47.283 101.088 47.4328C101.001 47.6534 100.927 47.8729 100.864 48.0912C100.974 48.1388 101.084 48.1852 101.194 48.2302C101.247 48.0612 101.306 47.8916 101.373 47.7214C101.433 47.5715 101.497 47.4211 101.566 47.2702C101.632 47.1287 101.834 46.7559 101.959 46.5266C101.987 46.4735 102.012 46.428 102.03 46.3949C101.909 46.413 101.784 46.4329 101.657 46.4531C101.617 46.4595 101.577 46.4658 101.537 46.4722ZM249.55 83.4906H249.32C249.194 82.9797 249.13 81.8303 249.13 80.0422C249.13 78.1903 249.983 73.2731 251.69 65.2907C253.396 57.3083 254.249 52.7424 254.249 51.5929C254.249 49.6133 253.365 47.442 251.595 45.0793L250.742 43.9298L250.837 42.6845C254.249 41.7266 259.716 41.2477 267.237 41.2477C267.28 41.3417 267.321 41.4379 267.362 41.5363C259.924 41.5431 254.511 42.022 251.122 42.9731L251.027 44.2183L251.881 45.3678C253.65 47.7306 254.535 49.9018 254.535 51.8814C254.535 53.0309 253.682 57.5968 251.975 65.5792C250.269 73.5617 249.416 78.4788 249.416 80.3307C249.416 81.8375 249.461 82.8908 249.55 83.4906ZM268.652 47.8168C268.657 48.0498 268.66 48.2871 268.66 48.5288C269.355 47.3793 270.809 45.8467 273.02 43.9309C275.232 42.0152 277.508 41.0573 279.846 41.0573C281.016 41.0573 281.986 41.4102 282.755 42.116C281.945 41.2178 280.88 40.7688 279.56 40.7688C277.222 40.7688 274.947 41.7266 272.735 43.6424C270.784 45.3319 269.423 46.7233 268.652 47.8168ZM275.541 55.7978C275.522 55.8011 275.503 55.8044 275.484 55.8076C275.421 55.8076 274.884 54.9455 273.872 53.2213C273.354 52.3373 272.902 51.6799 272.516 51.2491C272.958 51.6438 273.506 52.3974 274.158 53.5098C274.826 54.6484 275.287 55.4111 275.541 55.7978ZM200.473 76.1172C200.473 73.3712 201.294 68.7095 202.938 62.132C204.581 55.4906 205.402 51.4356 205.402 49.9668C205.402 48.4342 204.36 45.1774 202.084 42.6868C206.382 41.7928 212.038 41.3458 219.053 41.3458C219.087 41.4344 219.119 41.5306 219.149 41.6344C212.222 41.6424 206.629 42.0894 202.37 42.9754C204.645 45.4659 205.688 48.7227 205.688 50.2553C205.688 51.7241 204.866 55.7791 203.223 62.4205C201.58 68.998 200.758 73.6598 200.758 76.4057C200.758 79.027 201.422 81.0688 202.751 82.5312C202.686 82.47 202.622 82.4074 202.558 82.3435C201.168 80.8747 200.473 78.7993 200.473 76.1172ZM222.054 78.6957C222.294 80.163 222.937 81.3948 223.983 82.3908C223.003 81.339 222.434 80.0464 222.277 78.5131C222.203 78.5744 222.129 78.6352 222.054 78.6957ZM242.552 74.7265C242.559 74.5851 242.563 74.4419 242.563 74.2972C239.34 75.8298 237.539 76.5961 237.16 76.5961C237.036 76.5961 236.925 76.5682 236.826 76.5124C236.979 76.7605 237.185 76.8846 237.445 76.8846C237.812 76.8846 239.515 76.1653 242.552 74.7265ZM241.518 41.7301C241.519 41.6311 241.52 41.535 241.52 41.4416H239.719C233.968 41.4416 229.986 41.8886 227.775 42.7826C227.775 47.1889 226.637 54.5008 224.362 64.7183C223.351 69.0607 222.719 71.9983 222.466 73.5309C220.064 74.8719 217.947 75.5424 216.114 75.5424C215.659 75.5424 215.286 75.4307 214.995 75.2073C215.311 75.6231 215.779 75.831 216.4 75.831C218.233 75.831 220.35 75.1604 222.751 73.8194C223.004 72.2868 223.636 69.3492 224.647 65.0068C226.923 54.7893 228.06 47.4774 228.06 43.0712C230.272 42.1771 234.254 41.7301 240.005 41.7301H241.518ZM291.142 62.132C289.498 68.7095 288.677 73.3712 288.677 76.1172C288.677 78.7993 289.372 80.8747 290.762 82.3435C290.826 82.4074 290.89 82.47 290.954 82.5312C289.626 81.0688 288.962 79.027 288.962 76.4057C288.962 73.6598 289.784 68.998 291.427 62.4205C293.07 55.7791 293.892 51.7241 293.892 50.2553C293.892 48.7227 292.849 45.4659 290.574 42.9754C294.833 42.0894 300.426 41.6424 307.353 41.6344C307.323 41.5306 307.291 41.4344 307.257 41.3458C300.242 41.3458 294.586 41.7928 290.288 42.6868C292.564 45.1774 293.606 48.4342 293.606 49.9668C293.606 51.4356 292.785 55.4906 291.142 62.132ZM303.199 75.2073C303.515 75.6231 303.983 75.831 304.604 75.831C306.437 75.831 308.554 75.1604 310.955 73.8194C311.208 72.2868 311.84 69.3492 312.851 65.0068C315.126 54.7893 316.264 47.4774 316.264 43.0712C318.476 42.1771 322.457 41.7301 328.209 41.7301H329.722C329.723 41.6311 329.724 41.535 329.724 41.4416H327.923C322.172 41.4416 318.19 41.8886 315.979 42.7826C315.979 47.1889 314.841 54.5008 312.566 64.7183C311.555 69.0607 310.923 71.9983 310.67 73.5309C308.268 74.8719 306.151 75.5424 304.318 75.5424C303.863 75.5424 303.49 75.4307 303.199 75.2073ZM325.03 76.5124C325.183 76.7606 325.389 76.8846 325.649 76.8846C326.016 76.8846 327.719 76.1653 330.756 74.7265C330.763 74.5851 330.767 74.4419 330.767 74.2972C327.544 75.8298 325.743 76.5961 325.363 76.5961C325.24 76.5961 325.129 76.5682 325.03 76.5124ZM312.187 82.3908C311.207 81.339 310.638 80.0464 310.481 78.5131C310.407 78.5744 310.333 78.6352 310.258 78.6957C310.498 80.163 311.141 81.3947 312.187 82.3908ZM155.12 104.133C152.929 102.007 151.864 99.0558 152.569 95.8762C154.426 87.5091 164.848 86.0665 174.556 87.2206L175.622 79.9382C175.744 79.8471 175.867 79.7545 175.99 79.6602L174.842 87.5091C165.133 86.355 154.711 87.7977 152.855 96.1648C152.181 99.2028 153.124 102.032 155.12 104.133ZM195.679 82.4493C195.965 81.9983 196.252 81.5216 196.542 81.0174C193.644 84.0931 190.488 85.939 187.481 86.9955C187.454 87.1331 187.427 87.2711 187.399 87.4094C190.125 86.5057 192.987 84.9631 195.679 82.4493ZM157.76 80.6645C157.442 80.3541 157.135 80.019 156.84 79.6591C154.754 77.0408 153.712 72.858 153.712 67.1107C153.712 59.5753 155.386 53.3171 158.736 48.3361C162.085 43.2912 166.509 40.7688 172.008 40.7688C175.104 40.7688 178.169 41.5351 181.203 43.0677C184.426 41.9182 187.902 41.3435 191.631 41.3435L193.621 41.4393C193.643 41.5276 193.664 41.6202 193.683 41.717L191.916 41.632C188.188 41.632 184.712 42.2067 181.489 43.3562C178.455 41.8236 175.39 41.0573 172.293 41.0573C166.795 41.0573 162.371 43.5797 159.021 48.6246C155.672 53.6056 153.997 59.8638 153.997 67.3992C153.997 73.1466 155.04 77.3294 157.126 79.9476C157.332 80.1986 157.543 80.4376 157.76 80.6645ZM180.427 47.7293C179.667 54.6654 178.409 63.4567 176.653 74.1033C174.504 75.3166 172.64 75.9233 171.06 75.9233C170.381 75.9233 169.798 75.7089 169.311 75.2803C169.85 75.9013 170.528 76.2118 171.345 76.2118C172.925 76.2118 174.789 75.6051 176.938 74.3918C178.708 63.6635 179.972 54.8189 180.73 47.8583C180.628 47.814 180.527 47.771 180.427 47.7293ZM159.544 99.549C162.524 102.193 171.346 100.161 173.495 91.0981C173.613 91.103 173.729 91.1089 173.842 91.1156C171.737 100.724 162.222 102.642 159.544 99.549ZM80.3673 76.3395C80.4936 76.5589 80.6515 76.6687 80.8409 76.6687C81.22 76.6687 82.6736 76.062 85.2015 74.8487L86.1038 74.3928C86.0932 74.2561 86.0766 74.1203 86.0536 73.9854L84.916 74.5602C82.3881 75.7735 80.9345 76.3801 80.5553 76.3801C80.4888 76.3801 80.4261 76.3666 80.3673 76.3395ZM67.9236 82.5798C67.8345 82.4959 67.7476 82.409 67.6629 82.3191C66.3989 80.9141 65.7669 79.0622 65.7669 76.7633C65.7669 74.4005 66.5569 70.2496 68.1369 64.3107C69.7168 58.308 70.5068 54.4125 70.5068 52.6245C70.5068 49.9424 69.6852 47.42 68.0421 45.0572L66.261 42.9326C69.6105 41.9747 76.0683 41.2256 83.5889 41.2256C83.665 41.3144 83.7376 41.4106 83.8067 41.5141C76.3151 41.5186 69.886 42.2661 66.5466 43.2211L68.3276 45.3457C69.9708 47.7085 70.7923 50.2309 70.7923 52.913C70.7923 54.7011 70.0024 58.5965 68.4224 64.5993C66.8424 70.5382 66.0525 74.689 66.0525 77.0518C66.0525 79.3356 66.6762 81.1783 67.9236 82.5798ZM72.1184 25.7078C72.1184 27.8152 72.7503 29.5074 74.0143 30.7846C74.0486 30.8176 74.0833 30.8501 74.1184 30.8822C72.9754 29.6289 72.4039 28.0003 72.4039 25.9963C72.4039 23.889 73.2571 22.037 74.9634 20.4406C76.733 18.8441 78.7553 18.0458 81.0305 18.0458C83.2216 18.0458 84.9438 18.6381 86.197 19.8227C86.1501 19.7722 86.1023 19.7224 86.0536 19.6731C84.7896 18.3959 83.0201 17.7573 80.7449 17.7573C78.4698 17.7573 76.4474 18.5556 74.6779 20.152C72.9715 21.7485 72.1184 23.6004 72.1184 25.7078ZM56.3004 16.3427C56.0189 16.03 55.7004 15.7671 55.3448 15.5542L53.6384 15.7458C52.5009 15.8735 50.8261 16.3524 48.6142 17.1826C46.4654 17.9489 44.3483 19.0026 42.2627 20.3437C42.5787 22.3872 42.7367 24.3349 42.7367 26.1868C42.7367 30.3376 41.8519 34.0415 40.0824 37.2983C36.7329 41.6407 33.9206 44.5783 31.6454 46.1109C30.0023 45.0253 28.2643 44.4825 26.4316 44.4825C24.662 44.4825 23.6192 44.9614 23.3032 45.9193C22.9872 46.8133 22.8293 48.1224 22.8293 49.8466C22.8293 51.5708 23.0504 52.6565 23.4928 53.1035C23.536 53.1374 23.5809 53.1701 23.6274 53.2015C23.2856 52.6726 23.1148 51.6505 23.1148 50.1352C23.1148 48.411 23.2728 47.1019 23.5888 46.2078C23.9048 45.2499 24.9475 44.771 26.7171 44.771C28.5498 44.771 30.2878 45.3138 31.931 46.3994C34.2061 44.8668 37.0184 41.9292 40.3679 37.5868C42.1375 34.33 43.0223 30.6262 43.0223 26.4753C43.0223 24.6234 42.8643 22.6757 42.5483 20.6322C44.6338 19.2911 46.751 18.2375 48.8997 17.4711C51.1116 16.641 52.7864 16.162 53.924 16.0343L55.6303 15.8427C55.8706 15.9866 56.094 16.1533 56.3004 16.3427ZM28.4836 53.9855C28.5308 53.9796 28.5739 53.9733 28.613 53.9667C29.8138 56.2018 31.3938 62.2046 33.3529 71.9751C34.2377 76.4452 34.7749 79.0954 34.9645 79.9255C36.3548 86.3753 37.8716 90.6219 39.5147 92.6655C39.6374 92.8228 39.7666 92.9742 39.9023 93.1198C39.6595 92.8887 39.4352 92.6411 39.2292 92.3769C37.5861 90.3334 36.0693 86.0868 34.6789 79.637C34.4893 78.8068 33.9522 76.1567 33.0674 71.6865C31.192 62.3337 29.664 56.4333 28.4836 53.9855ZM57.2474 88.7161C57.2803 88.5962 57.3097 88.4754 57.3355 88.3538C57.1459 88.4177 56.8615 88.4496 56.4824 88.4496C55.3745 88.4496 54.2667 87.9129 53.1588 86.8396C54.3619 88.1053 55.5649 88.7381 56.7679 88.7381C56.9495 88.7381 57.1093 88.7308 57.2474 88.7161ZM11.3588 23.6963C11.3588 22.2275 10.6004 20.631 9.08362 18.9068L9.17842 18.2363C12.6543 16.1928 16.9202 15.1711 21.9761 15.1711C23.9352 15.1711 25.3888 15.3307 26.3368 15.65C26.3696 15.7229 26.4006 15.7989 26.43 15.878C25.4823 15.599 24.0928 15.4596 22.2616 15.4596C17.2057 15.4596 12.9399 16.4813 9.46395 18.5248L9.36916 19.1953C10.8859 20.9195 11.6443 22.516 11.6443 23.9848C11.6443 28.1995 9.87474 38.2254 6.33564 54.0625C2.853 69.6469 0.930906 79.4804 0.569348 83.563C0.459434 83.5347 0.358803 83.5032 0.267456 83.4686C0.583448 79.5093 2.511 69.6111 6.0501 53.774C9.58921 37.9369 11.3588 27.911 11.3588 23.6963ZM111.21 84.6779C111.235 84.6576 111.26 84.6371 111.285 84.6164C110.289 84.0092 109.372 83.2924 108.55 82.4832C109.346 83.31 110.238 84.0472 111.21 84.6779ZM96.5077 84.9865C96.0191 84.4235 95.7481 83.7014 95.7481 82.9518C95.748 82.8133 95.7573 82.6749 95.7759 82.5377C95.876 81.7933 96.2425 81.1104 96.8076 80.6159C97.3726 80.1214 98.0978 79.8487 98.8484 79.8485H98.8624C101.054 79.8274 103.165 79.0171 104.809 77.566C104.912 77.4803 105.013 77.3963 105.11 77.3117C105.056 77.1774 105.005 77.042 104.955 76.9057C104.819 77.0308 104.675 77.1524 104.523 77.2775C102.88 78.7286 100.769 79.5389 98.5768 79.56H98.5629C97.8122 79.5602 97.0871 79.8328 96.522 80.3274C95.957 80.8219 95.5904 81.5047 95.4904 82.2492C95.4717 82.3864 95.4624 82.5248 95.4625 82.6633C95.4625 83.4713 95.7775 84.2475 96.3404 84.8267C96.3944 84.8823 96.4502 84.9355 96.5077 84.9865ZM112.411 28.8658L112.405 28.8536C112.412 28.853 112.42 28.8531 112.427 28.8538C112.424 28.8557 112.421 28.8577 112.418 28.8598C112.417 28.8609 112.416 28.862 112.414 28.8631C112.413 28.864 112.412 28.8649 112.411 28.8658Z" fill="black" fill-opacity="0.3"/>
</svg>
