<svg width="506" height="681" viewBox="0 0 506 681" fill="none" xmlns="http://www.w3.org/2000/svg">
<g clip-path="url(#clip0_80_1256)">
<path fill-rule="evenodd" clip-rule="evenodd" d="M505.811 74.6875C505.639 33.3885 472.111 0 430.812 0H340.25C322.439 0 308 14.4388 308 32.25C308 50.0612 322.439 64.5 340.25 64.5H350.25C373.584 64.5 392.5 83.416 392.5 106.75V187.5C392.5 212.353 412.647 232.5 437.5 232.5H461C485.853 232.5 506 212.353 506 187.5V120L505.811 74.6875Z" fill="white" fill-opacity="0.45"/>
<path fill-rule="evenodd" clip-rule="evenodd" d="M111 462.5C111 437.647 90.8528 417.5 66 417.5H45C20.1472 417.5 0 437.647 0 462.5V595.5C0 642.444 38.0558 680.5 85 680.5H237.5C260.972 680.5 280 661.472 280 638C280 614.528 260.972 595.5 237.5 595.5H156C131.147 595.5 111 575.353 111 550.5V462.5Z" fill="white" fill-opacity="0.45"/>
<path fill-rule="evenodd" clip-rule="evenodd" d="M122.577 54.6691C129.587 49.8322 138.086 47 147.25 47H165.487C166.315 47 166.987 46.3284 166.987 45.5C166.987 44.6716 166.315 44 165.487 44H147.25C137.458 44 128.369 47.0284 120.873 52.1998C120.191 52.6702 120.02 53.6044 120.491 54.2863C120.961 54.9682 121.895 55.1395 122.577 54.6691ZM176.513 44C175.685 44 175.013 44.6716 175.013 45.5C175.013 46.3284 175.685 47 176.513 47H194.75C195.578 47 196.25 46.3284 196.25 45.5C196.25 44.6716 195.578 44 194.75 44H176.513ZM111.419 65.827C111.89 65.1451 111.718 64.211 111.036 63.7405C110.354 63.2701 109.42 63.4414 108.95 64.1233C103.778 71.6186 100.75 80.7079 100.75 90.5V137.915C100.75 138.744 101.422 139.415 102.25 139.415C103.078 139.415 103.75 138.744 103.75 137.915V90.5C103.75 81.3357 106.582 72.8374 111.419 65.827ZM103.75 166.585C103.75 165.756 103.078 165.085 102.25 165.085C101.422 165.085 100.75 165.756 100.75 166.585V261.415C100.75 262.244 101.422 262.915 102.25 262.915C103.078 262.915 103.75 262.244 103.75 261.415V166.585ZM103.75 290.085C103.75 289.256 103.078 288.585 102.25 288.585C101.422 288.585 100.75 289.256 100.75 290.085V384.915C100.75 385.744 101.422 386.415 102.25 386.415C103.078 386.415 103.75 385.744 103.75 384.915V290.085ZM103.75 413.585C103.75 412.756 103.078 412.085 102.25 412.085C101.422 412.085 100.75 412.756 100.75 413.585V461C100.75 461.828 101.422 462.5 102.25 462.5C103.078 462.5 103.75 461.828 103.75 461V413.585ZM391.423 602.831C384.413 607.668 375.914 610.5 366.75 610.5H348.513C347.685 610.5 347.013 611.172 347.013 612C347.013 612.828 347.685 613.5 348.513 613.5H366.75C376.542 613.5 385.631 610.472 393.127 605.3C393.809 604.83 393.98 603.896 393.509 603.214C393.039 602.532 392.105 602.36 391.423 602.831ZM337.487 613.5C338.315 613.5 338.987 612.828 338.987 612C338.987 611.172 338.315 610.5 337.487 610.5H319.25C318.422 610.5 317.75 611.172 317.75 612C317.75 612.828 318.422 613.5 319.25 613.5H337.487ZM402.581 591.673C402.11 592.355 402.282 593.289 402.964 593.759C403.646 594.23 404.58 594.059 405.05 593.377C410.222 585.881 413.25 576.792 413.25 567V516.129C413.25 515.301 412.578 514.629 411.75 514.629C410.922 514.629 410.25 515.301 410.25 516.129V567C410.25 576.164 407.418 584.663 402.581 591.673ZM410.25 485.371C410.25 486.199 410.922 486.871 411.75 486.871C412.578 486.871 413.25 486.199 413.25 485.371V434.5C413.25 433.672 412.578 433 411.75 433C410.922 433 410.25 433.672 410.25 434.5V485.371Z" fill="#14586F"/>
</g>
<defs>
<clipPath id="clip0_80_1256">
<rect width="506" height="681" fill="white"/>
</clipPath>
</defs>
</svg>
