<svg width="72" height="72" viewBox="0 0 72 72" fill="none" xmlns="http://www.w3.org/2000/svg">
<path d="M72 54C72 56.1217 71.1571 58.1566 69.6569 59.6569C68.1566 61.1571 66.1217 62 64 62H8C5.87827 62 3.84344 61.1571 2.34315 59.6569C0.842855 58.1566 0 56.1217 0 54V18C0 15.8783 0.842855 13.8434 2.34315 12.3431C3.84344 10.8429 5.87827 10 8 10H64C66.1217 10 68.1566 10.8429 69.6569 12.3431C71.1571 13.8434 72 15.8783 72 18V54Z" fill="#CCD6DD"/>
<path d="M23.9003 35.2719L1.2743 57.8979C1.2203 57.9539 1.2003 58.0239 1.1543 58.0799C1.8343 59.2199 2.7823 60.1659 3.9223 60.8479C3.9803 60.8019 4.0483 60.7819 4.1023 60.7279L26.7303 38.0999C27.1053 37.7247 27.3159 37.2158 27.3157 36.6852C27.3155 36.1547 27.1046 35.646 26.7293 35.271C26.354 34.8959 25.8451 34.6854 25.3146 34.6855C24.7841 34.6857 24.2753 34.8967 23.9003 35.2719ZM70.8463 58.0799C70.8043 58.0239 70.7803 57.9539 70.7263 57.8999L48.1023 35.2719C47.9166 35.0861 47.6961 34.9387 47.4535 34.8381C47.2108 34.7375 46.9507 34.6856 46.688 34.6855C46.4253 34.6855 46.1652 34.7371 45.9224 34.8375C45.6797 34.938 45.4591 35.0853 45.2733 35.271C45.0875 35.4566 44.9401 35.6771 44.8394 35.9198C44.7388 36.1624 44.687 36.4225 44.6869 36.6852C44.6868 36.9479 44.7385 37.2081 44.8389 37.4508C44.9393 37.6936 45.0866 37.9141 45.2723 38.0999L67.8983 60.7279C67.9503 60.7799 68.0223 60.8019 68.0783 60.8479C69.216 60.1687 70.1671 59.2176 70.8463 58.0799Z" fill="#99AAB5"/>
<path d="M64 10H8C5.87827 10 3.84344 10.8429 2.34315 12.3431C0.842855 13.8434 0 15.8783 0 18L0 20.06L29.056 49.052C30.8849 50.8717 33.36 51.8933 35.94 51.8933C38.52 51.8933 40.9951 50.8717 42.824 49.052L72 20.018V18C72 15.8783 71.1571 13.8434 69.6569 12.3431C68.1566 10.8429 66.1217 10 64 10Z" fill="#99AAB5"/>
<path d="M63.9996 10H7.99957C6.49394 10.0029 5.01984 10.4316 3.74756 11.2368C2.47528 12.0419 1.45673 13.1905 0.80957 14.55L30.3416 44.084C31.0844 44.8269 31.9664 45.4162 32.937 45.8183C33.9076 46.2203 34.948 46.4273 35.9986 46.4273C37.0492 46.4273 38.0895 46.2203 39.0601 45.8183C40.0308 45.4162 40.9127 44.8269 41.6556 44.084L71.1896 14.55C70.5424 13.1905 69.5239 12.0419 68.2516 11.2368C66.9793 10.4316 65.5052 10.0029 63.9996 10Z" fill="#E1E8ED"/>
<path d="M30 18.54C30 17.08 30.73 16 32 16H39.24C40.918 16 41.588 16.98 41.588 18C41.588 18.992 40.89 20 39.518 20H34.102V24H39.168C40.6 24 41.298 24.978 41.298 26C41.298 26.992 40.566 28 39.168 28H34.102V32H39.782C41.18 32 41.856 32.978 41.856 34C41.856 34.992 41.15 36 39.782 36H32.25C30.964 36 30 34.938 30 33.624V18.54Z" fill="#66757F"/>
</svg>
