<svg width="624" height="418" viewBox="0 0 624 418" fill="none" xmlns="http://www.w3.org/2000/svg">
<path fill-rule="evenodd" clip-rule="evenodd" d="M75.4375 0.188794C34.1385 0.360869 0.749993 33.8888 0.749995 75.1882L0.749999 165.75C0.749999 183.561 15.1888 198 33 198C50.8112 198 65.25 183.561 65.25 165.75L65.25 155.75C65.25 132.416 84.166 113.5 107.5 113.5L188.25 113.5C213.103 113.5 233.25 93.3528 233.25 68.5L233.25 45C233.25 20.1472 213.103 -9.28224e-06 188.25 -8.19589e-06L120.75 -5.24537e-06L75.4375 0.188794Z" fill="white" fill-opacity="0.45"/>
<path fill-rule="evenodd" clip-rule="evenodd" d="M548.563 417.811C589.862 417.639 623.25 384.111 623.25 342.812L623.25 252.25C623.25 234.439 608.811 220 591 220C573.189 220 558.75 234.439 558.75 252.25L558.75 262.25C558.75 285.584 539.834 304.5 516.5 304.5L435.75 304.5C410.897 304.5 390.75 324.647 390.75 349.5L390.75 373C390.75 397.853 410.897 418 435.75 418L503.25 418L548.563 417.811Z" fill="white" fill-opacity="0.45"/>
<path fill-rule="evenodd" clip-rule="evenodd" d="M27.4191 375.673C22.5822 368.663 19.75 360.164 19.75 351L19.75 332.763C19.75 331.935 19.0784 331.263 18.25 331.263C17.4216 331.263 16.75 331.935 16.75 332.763L16.75 351C16.75 360.792 19.7784 369.881 24.9498 377.377C25.4202 378.059 26.3544 378.23 27.0363 377.759C27.7182 377.289 27.8895 376.355 27.4191 375.673ZM16.75 321.737C16.75 322.565 17.4216 323.237 18.25 323.237C19.0784 323.237 19.75 322.565 19.75 321.737L19.75 303.5C19.75 302.672 19.0784 302 18.25 302C17.4216 302 16.75 302.672 16.75 303.5L16.75 321.737ZM38.577 386.831C37.8951 386.36 36.961 386.532 36.4905 387.214C36.0201 387.896 36.1914 388.83 36.8733 389.3C44.3686 394.472 53.4579 397.5 63.25 397.5L110.665 397.5C111.494 397.5 112.165 396.828 112.165 396C112.165 395.172 111.494 394.5 110.665 394.5L63.25 394.5C54.0857 394.5 45.5874 391.668 38.577 386.831ZM139.335 394.5C138.506 394.5 137.835 395.172 137.835 396C137.835 396.828 138.506 397.5 139.335 397.5L234.165 397.5C234.994 397.5 235.665 396.828 235.665 396C235.665 395.172 234.994 394.5 234.165 394.5L139.335 394.5ZM262.835 394.5C262.006 394.5 261.335 395.172 261.335 396C261.335 396.828 262.006 397.5 262.835 397.5L357.665 397.5C358.494 397.5 359.165 396.828 359.165 396C359.165 395.172 358.494 394.5 357.665 394.5L262.835 394.5ZM386.335 394.5C385.506 394.5 384.835 395.172 384.835 396C384.835 396.828 385.506 397.5 386.335 397.5L433.75 397.5C434.578 397.5 435.25 396.828 435.25 396C435.25 395.172 434.578 394.5 433.75 394.5L386.335 394.5Z" fill="#14586F"/>
</svg>
